<?xml version="1.0" standalone="no"?>
<!DOCTYPE svg PUBLIC "-//W3C//DTD SVG 20010904//EN"
 "http://www.w3.org/TR/2001/REC-SVG-20010904/DTD/svg10.dtd">
<svg version="1.0" xmlns="http://www.w3.org/2000/svg"
 width="460.000000pt" height="460.000000pt" viewBox="0 0 460.000000 460.000000"
 preserveAspectRatio="xMidYMid meet">
<metadata>
Created by potrace 1.11, written by Peter Selinger 2001-2013
</metadata>
<g transform="translate(0.000000,460.000000) scale(0.100000,-0.100000)"
fill="#000000" stroke="none">
<path d="M1910 4580 c-96 -19 -171 -36 -270 -63 -109 -30 -362 -132 -368 -148
-2 -5 -10 -9 -18 -9 -27 0 -366 -214 -394 -249 -3 -3 -27 -24 -55 -46 -74 -58
-231 -219 -304 -310 -69 -86 -195 -271 -217 -320 -8 -16 -19 -37 -24 -45 -62
-97 -185 -426 -215 -575 -43 -218 -43 -228 -43 -515 0 -255 2 -298 23 -408 49
-259 139 -508 266 -732 41 -72 102 -164 111 -168 5 -2 8 -8 8 -14 0 -20 154
-203 254 -303 151 -150 272 -245 452 -352 92 -55 285 -153 300 -153 4 0 36
-11 70 -25 70 -28 278 -89 339 -100 190 -33 285 -42 460 -43 105 0 222 4 260
9 120 15 170 23 203 33 9 3 33 7 53 10 51 8 253 70 346 107 106 42 266 121
331 164 30 19 56 35 58 35 13 0 170 116 258 190 60 50 214 207 268 271 285
341 457 736 522 1194 22 154 15 515 -13 670 -49 275 -141 537 -264 750 -41 71
-151 240 -171 261 -6 7 -22 27 -36 45 -73 96 -221 249 -325 335 -84 69 -172
134 -184 134 -5 0 -11 4 -13 8 -3 8 -69 50 -163 105 -169 98 -426 193 -663
245 -110 24 -137 25 -432 28 -272 2 -328 0 -410 -16z"/>
</g>
</svg>
